{
  "source": "C:\\Users\\Peter\\Desktop\\stuff\\MIUN\\quantitative_research\\video_compression\\videos\\UVG\\Beauty_1920x1080_120fps_420_8bit_YUV.y4m",
  "output": "C:\\Users\\Peter\\Desktop\\stuff\\MIUN\\quantitative_research\\video_compression\\compressed_videos\\UVG\\h264\\3\\Beauty_1920x1080_120fps_420_8bit_YUV_h264.mp4",
  "codec": "h264",
  "ok": "[yuv4mpegpipe @ 000001b1034f5e00] Stream #0: not enough frames to estimate rate; consider increasing probesize\nInput #0, yuv4mpegpipe, from 'C:\\Users\\Peter\\Desktop\\stuff\\MIUN\\quantitative_research\\video_compression\\videos\\UVG\\Beauty_1920x1080_120fps_420_8bit_YUV.y4m':\n  Duration: 00:00:05.00, start: 0.000000, bitrate: 2985989 kb/s\n  Stream #0:0: Video: rawvideo (I420 / 0x30323449), yuv420p(progressive), 1920x1080, 120 fps, 120 tbr, 120 tbn\n[out#0/mp4 @ 000001b1034fa600] Codec AVOption b:a (set bitrate (in bits/s)) has not been used for any stream. The most likely reason is either wrong type (e.g. a video option with no video streams) or that it is a private option of some decoder which was not actually used for any stream.\nStream mapping:\n  Stream #0:0 -> #0:0 (rawvideo (native) -> h264 (libx264))\nPress [q] to stop, [?] for help\n[libx264 @ 000001b1034fca80] using cpu capabilities: MMX2 SSE2Fast SSSE3 SSE4.2 AVX FMA3 BMI2 AVX2\n[libx264 @ 000001b1034fca80] profile High, level 5.1, 4:2:0, 8-bit\n[libx264 @ 000001b1034fca80] 264 - core 165 r3222 b35605a - H.264/MPEG-4 AVC codec - Copyleft 2003-2025 - http://www.videolan.org/x264.html - options: cabac=1 ref=5 deblock=1:0:0 analyse=0x3:0x113 me=hex subme=8 psy=1 psy_rd=1.00:0.00 mixed_ref=1 me_range=16 chroma_me=1 trellis=2 8x8dct=1 cqm=0 deadzone=21,11 fast_pskip=1 chroma_qp_offset=-2 threads=18 lookahead_threads=3 sliced_threads=0 nr=0 decimate=1 interlaced=0 bluray_compat=0 constrained_intra=0 bframes=3 b_pyramid=2 b_adapt=1 b_bias=0 direct=3 weightb=1 open_gop=0 weightp=2 keyint=250 keyint_min=25 scenecut=40 intra_refresh=0 rc_lookahead=50 rc=cbr mbtree=1 bitrate=3000 ratetol=1.0 qcomp=0.60 qpmin=0 qpmax=69 qpstep=4 vbv_maxrate=3000 vbv_bufsize=3000 nal_hrd=none filler=0 ip_ratio=1.40 aq=1:1.00\nOutput #0, mp4, to 'C:\\Users\\Peter\\Desktop\\stuff\\MIUN\\quantitative_research\\video_compression\\compressed_videos\\UVG\\h264\\3\\Beauty_1920x1080_120fps_420_8bit_YUV_h264.mp4':\n  Metadata:\n    encoder         : Lavf62.3.100\n  Stream #0:0: Video: h264 (avc1 / 0x31637661), yuv420p(tv, progressive), 1920x1080, q=2-31, 3000 kb/s, 120 fps, 15360 tbn\n    Metadata:\n      encoder         : Lavc62.11.100 libx264\n    Side data:\n      cpb: bitrate max/min/avg: 3000000/0/3000000 buffer size: 3000000 vbv_delay: N/A\nframe=    0 fps=0.0 q=0.0 size=       0KiB time=N/A bitrate=N/A speed=N/A elapsed=0:00:00.50    \nframe=   40 fps= 39 q=40.0 size=       0KiB time=00:00:00.31 bitrate=   1.2kbits/s speed=0.306x elapsed=0:00:01.03    \nframe=   67 fps= 44 q=40.0 size=       0KiB time=00:00:00.54 bitrate=   0.7kbits/s speed=0.352x elapsed=0:00:01.53    \nframe=   81 fps= 39 q=41.0 size=       0KiB time=00:00:00.65 bitrate=   0.6kbits/s speed=0.32x elapsed=0:00:02.05    \nframe=  102 fps= 40 q=41.0 size=       0KiB time=00:00:00.83 bitrate=   0.5kbits/s speed=0.324x elapsed=0:00:02.57    \nframe=  124 fps= 40 q=41.0 size=     256KiB time=00:00:01.01 bitrate=2063.1kbits/s speed=0.329x elapsed=0:00:03.09    \nframe=  145 fps= 40 q=41.0 size=     256KiB time=00:00:01.19 bitrate=1760.2kbits/s speed=0.33x elapsed=0:00:03.61    \nframe=  166 fps= 40 q=41.0 size=     256KiB time=00:00:01.36 bitrate=1534.8kbits/s speed=0.332x elapsed=0:00:04.11    \nframe=  189 fps= 41 q=41.0 size=     256KiB time=00:00:01.55 bitrate=1346.0kbits/s speed=0.335x elapsed=0:00:04.64    \nframe=  210 fps= 41 q=41.0 size=     512KiB time=00:00:01.73 bitrate=2420.0kbits/s speed=0.337x elapsed=0:00:05.14    \nframe=  231 fps= 41 q=41.0 size=     512KiB time=00:00:01.90 bitrate=2198.1kbits/s speed=0.337x elapsed=0:00:05.66    \nframe=  281 fps= 45 q=40.0 size=     512KiB time=00:00:02.32 bitrate=1804.2kbits/s speed=0.376x elapsed=0:00:06.18    \nframe=  333 fps= 50 q=40.0 size=     768KiB time=00:00:02.75 bitrate=2281.0kbits/s speed=0.411x elapsed=0:00:06.70    \nframe=  353 fps= 49 q=41.0 size=     768KiB time=00:00:02.92 bitrate=2151.1kbits/s speed=0.405x elapsed=0:00:07.22    \nframe=  405 fps= 52 q=40.0 size=    1024KiB time=00:00:03.35 bitrate=2498.0kbits/s speed=0.434x elapsed=0:00:07.73    \nframe=  453 fps= 55 q=40.0 size=    1280KiB time=00:00:03.75 bitrate=2790.1kbits/s speed=0.456x elapsed=0:00:08.25    \nframe=  466 fps= 53 q=40.0 size=    1280KiB time=00:00:03.86 bitrate=2711.9kbits/s speed=0.441x elapsed=0:00:08.76    \nframe=  486 fps= 52 q=41.0 size=    1280KiB time=00:00:04.03 bitrate=2599.9kbits/s speed=0.435x elapsed=0:00:09.27    \nframe=  508 fps= 52 q=41.0 size=    1280KiB time=00:00:04.21 bitrate=2486.8kbits/s speed=0.431x elapsed=0:00:09.79    \nframe=  529 fps= 51 q=41.0 size=    1280KiB time=00:00:04.39 bitrate=2387.7kbits/s speed=0.426x elapsed=0:00:10.31    \n[mp4 @ 000001b1034fb700] Starting second pass: moving the moov atom to the beginning of the file\n[out#0/mp4 @ 000001b1034fa600] video:1709KiB audio:0KiB subtitle:0KiB other streams:0KiB global headers:0KiB muxing overhead: 0.330217%\nframe=  600 fps= 55 q=-1.0 Lsize=    1715KiB time=00:00:04.98 bitrate=2818.7kbits/s speed=0.461x elapsed=0:00:10.81    \n[libx264 @ 000001b1034fca80] frame I:3     Avg QP:37.79  size: 12849\n[libx264 @ 000001b1034fca80] frame P:367   Avg QP:38.73  size:  3419\n[libx264 @ 000001b1034fca80] frame B:230   Avg QP:40.33  size:  1982\n[libx264 @ 000001b1034fca80] consecutive B-frames: 48.7%  0.7%  0.0% 50.7%\n[libx264 @ 000001b1034fca80] mb I  I16..4: 40.2% 58.1%  1.6%\n[libx264 @ 000001b1034fca80] mb P  I16..4:  0.7%  0.9%  0.0%  P16..4: 16.8%  0.8%  1.3%  0.0%  0.0%    skip:79.4%\n[libx264 @ 000001b1034fca80] mb B  I16..4:  0.1%  0.1%  0.0%  B16..8: 22.7%  0.4%  0.0%  direct: 0.0%  skip:76.7%  L0:37.9% L1:61.8% BI: 0.3%\n[libx264 @ 000001b1034fca80] 8x8 transform intra:57.8% inter:96.3%\n[libx264 @ 000001b1034fca80] direct mvs  spatial:95.7% temporal:4.3%\n[libx264 @ 000001b1034fca80] coded y,uvDC,uvAC intra: 15.1% 17.2% 0.2% inter: 0.9% 1.1% 0.0%\n[libx264 @ 000001b1034fca80] i16 v,h,dc,p: 15% 27%  4% 53%\n[libx264 @ 000001b1034fca80] i8 v,h,dc,ddl,ddr,vr,hd,vl,hu:  3%  4% 21%  7% 25%  9% 19%  5%  8%\n[libx264 @ 000001b1034fca80] i4 v,h,dc,ddl,ddr,vr,hd,vl,hu:  7%  3%  5%  8% 50%  8%  9%  4%  6%\n[libx264 @ 000001b1034fca80] i8c dc,h,v,p: 64% 27%  6%  3%\n[libx264 @ 000001b1034fca80] Weighted P-Frames: Y:0.0% UV:0.0%\n[libx264 @ 000001b1034fca80] ref P L0: 51.0% 11.8% 19.3%  6.6%  6.8%  4.6%\n[libx264 @ 000001b1034fca80] ref B L0: 84.0% 10.8%  3.9%  1.2%\n[libx264 @ 000001b1034fca80] ref B L1: 96.0%  4.0%\n[libx264 @ 000001b1034fca80] kb/s:2798.88\n",
  "seconds": 10.8925039768219,
  "probe_out": {}
}